<?xml version="1.0" encoding="UTF-8" standalone="no"?>
<!-- Generator: Adobe Illustrator 16.0.0, SVG Export Plug-In . SVG Version: 6.00 Build 0)  -->

<svg
   xmlns:dc="http://purl.org/dc/elements/1.1/"
   xmlns:cc="http://creativecommons.org/ns#"
   xmlns:rdf="http://www.w3.org/1999/02/22-rdf-syntax-ns#"
   xmlns:svg="http://www.w3.org/2000/svg"
   xmlns="http://www.w3.org/2000/svg"
   xmlns:sodipodi="http://sodipodi.sourceforge.net/DTD/sodipodi-0.dtd"
   xmlns:inkscape="http://www.inkscape.org/namespaces/inkscape"
   version="1.1"
   id="Layer_1"
   x="0px"
   y="0px"
   width="170.50311"
   height="60"
   viewBox="0 0 170.50312 60"
   enable-background="new 0 0 425.199 425.199"
   xml:space="preserve"
   inkscape:version="0.91 r13725"
   sodipodi:docname="traherne_logo.svg"
   inkscape:export-filename="/home/tlm/dev/imcomp/asset/imcomp/traherne/img/traherne_logo.png"
   inkscape:export-xdpi="90"
   inkscape:export-ydpi="90"><metadata
     id="metadata4166"><rdf:RDF><cc:Work
         rdf:about=""><dc:format>image/svg+xml</dc:format><dc:type
           rdf:resource="http://purl.org/dc/dcmitype/StillImage" /><dc:title></dc:title><dc:creator><cc:Agent><dc:title>Abhishek Dutta</dc:title></cc:Agent></dc:creator></cc:Work></rdf:RDF></metadata><defs
     id="defs4164" /><sodipodi:namedview
     pagecolor="#ffffff"
     bordercolor="#666666"
     borderopacity="1"
     objecttolerance="10"
     gridtolerance="10"
     guidetolerance="10"
     inkscape:pageopacity="1"
     inkscape:pageshadow="2"
     inkscape:window-width="1855"
     inkscape:window-height="1056"
     id="namedview4162"
     showgrid="false"
     inkscape:zoom="1"
     inkscape:cx="-108.07813"
     inkscape:cy="41.577446"
     inkscape:window-x="1985"
     inkscape:window-y="24"
     inkscape:window-maximized="1"
     inkscape:current-layer="Layer_1"
     fit-margin-top="0"
     fit-margin-left="0"
     fit-margin-right="0"
     fit-margin-bottom="0" /><g
     id="g4158"
     transform="matrix(0.2142268,0,0,0.2142268,-25.567969,-16.748465)"><path
       d="m 364.076,78.181 2.344,90.625 -26.367,0 c 0,-21.222 -4.364,-37.207 -13.086,-47.949 -8.725,-10.742 -20.834,-16.046 -36.328,-15.918 l -19.141,0.195 0,187.5 c 0,3.647 -0.033,7.227 -0.098,10.742 -0.067,3.516 -0.165,6.87 -0.293,10.059 -0.131,3.192 -0.293,6.089 -0.488,8.691 -0.195,2.606 -0.424,4.755 -0.684,6.445 l 32.031,-1.172 0,30.859 -116.796,0 0,-26.367 c 4.425,-0.128 8.429,-0.552 12.012,-1.27 3.58,-0.714 6.573,-2.179 8.984,-4.395 2.408,-2.212 4.264,-5.597 5.566,-10.156 1.3,-4.556 1.953,-10.87 1.953,-18.945 l 0,-191.6 -18.555,0 c -15.234,0 -27.246,5.146 -36.035,15.43 -8.789,10.288 -13.251,26.239 -13.379,47.852 l -26.366,0 2.344,-90.625 242.382,0 z"
       id="path4160"
       inkscape:connector-curvature="0"
       style="fill:#bc2b18" /></g><flowRoot
     xml:space="preserve"
     id="flowRoot4168"
     style="font-style:normal;font-weight:normal;font-size:18.75px;line-height:125%;font-family:sans-serif;letter-spacing:0px;word-spacing:0px;fill:#000000;fill-opacity:1;stroke:none;stroke-width:1px;stroke-linecap:butt;stroke-linejoin:miter;stroke-opacity:1"
     transform="translate(-330.16254,-197.26116)"><flowRegion
       id="flowRegion4170"><rect
         id="rect4172"
         width="109.39999"
         height="65.611282"
         x="392.34903"
         y="193.86113"
         style="font-size:18.75px" /></flowRegion><flowPara
       id="flowPara4174"
       style="font-style:normal;font-variant:normal;font-weight:normal;font-stretch:normal;font-size:18.75px;line-height:120.00000477%;font-family:cmr10;-inkscape-font-specification:cmr10">TRAHERNE</flowPara><flowPara
       style="font-style:normal;font-variant:normal;font-weight:normal;font-stretch:normal;font-size:18.75px;line-height:120.00000477%;font-family:cmr10;-inkscape-font-specification:cmr10"
       id="flowPara4243">DIGITAL</flowPara><flowPara
       style="font-style:normal;font-variant:normal;font-weight:normal;font-stretch:normal;font-size:18.75px;line-height:120.00000477%;font-family:cmr10;-inkscape-font-specification:cmr10"
       id="flowPara4245">COLLATOR</flowPara></flowRoot></svg>